<svg width="32" height="32" viewBox="0 0 32 32" fill="none" xmlns="http://www.w3.org/2000/svg">
  <rect width="32" height="32" rx="7" fill="#0a0b0f"/>
  <circle cx="16" cy="16" r="9.5" fill="#f5f5f7"/>
  <g stroke="#e8202a" stroke-width="1.6" stroke-linecap="round" fill="none">
    <path d="M9.4 9.4c2.2 1.7 3.4 4 3.4 6.6s-1.2 4.9-3.4 6.6"/>
    <path d="M22.6 9.4c-2.2 1.7-3.4 4-3.4 6.6s1.2 4.9 3.4 6.6"/>
    <g stroke-width="1.3">
      <path d="M10.7 11.3l1.6-.5M10.5 14l1.7-.2M10.5 18l1.7.2M10.7 20.7l1.6.5"/>
      <path d="M21.3 11.3l-1.6-.5M21.5 14l-1.7-.2M21.5 18l-1.7.2M21.3 20.7l-1.6.5"/>
    </g>
  </g>
</svg>
